<?xml version="1.0" encoding="UTF-8"?><svg id="a" xmlns="http://www.w3.org/2000/svg" width="705" height="707" viewBox="0 0 705 707"><path d="M392.35999,166.91992v534.48004c-1.75.31-3.5.60999-5.26996.87-7.91998,1.21997-15.97003,2.03998-24.10999,2.44-1.93005.08997-3.87006.16998-5.82001.21997-.85004.02002-1.70001.03003-2.55005.04004-.09998.00995-.18994.00995-.27997.00995h-.75c-.42999.01001-.87.01001-1.29999.01001-.32001.01001-.64001.01001-.97003.01001h-.70996c-.35004,0-.69,0-1.04004-.01001-.32996.01001-.64996.01001-.97998,0-.04999-.01001-.09998-.01001-.15002-.01001h-.44995c-2.31-.03998-4.61005-.10999-6.90002-.20996-8.44-.36005-16.77002-1.17004-24.97003-2.41003-1.94995-.28998-3.89996-.62-5.83997-.95996v-263.32001h-.01001V167.43994l41.07001-44.81.90002-.97003.01996-.00995v.00995l.25.27002,39.85999,44.98999Z" style="fill:#fff; stroke:#231f20; stroke-miterlimit:10; stroke-width:4px;"/><polygon points="392.35999 166.91998 392.35999 196.57996 352.25 151.28998 310.26001 197.08997 310.26001 167.44 351.33002 122.63 352.22998 121.65997 352.25 121.64996 352.25 121.65997 352.5 121.92999 392.35999 166.91998" style="stroke:#231f20; stroke-miterlimit:10; stroke-width:4px;"/><polygon points="392.35999 196.57996 392.35999 257.14001 352.25 211.85999 310.26001 257.65997 310.26001 197.08997 352.25 151.28998 392.35999 196.57996" style="fill:none; stroke:#231f20; stroke-miterlimit:10; stroke-width:4px;"/><polygon points="392.35999 257.14001 392.35999 286.78998 352.25 241.51001 310.26001 287.31 310.26001 257.65997 352.25 211.85999 392.35999 257.14001" style="stroke:#231f20; stroke-miterlimit:10; stroke-width:4px;"/><polygon points="392.35999 286.78998 392.35999 347.35999 352.25 302.07996 310.26001 347.88 310.26001 287.31 352.25 241.51001 392.35999 286.78998" style="fill:none; stroke:#231f20; stroke-miterlimit:10; stroke-width:4px;"/><polygon points="392.35999 347.35999 392.35999 377 352.25 331.70996 310.26001 377.51001 310.26001 347.88 352.25 302.07996 392.35999 347.35999" style="stroke:#231f20; stroke-miterlimit:10; stroke-width:4px;"/><polygon points="392.35999 377 392.35999 437.57001 352.25 392.27997 310.27002 438.07001 310.26001 438.07996 310.26001 377.51001 352.25 331.70996 392.35999 377" style="fill:none; stroke:#231f20; stroke-miterlimit:10; stroke-width:4px;"/><polygon points="392.35501 437.57001 392.35501 467.21997 352.24503 421.92999 310.26498 467.72998 310.26498 438.07996 352.24503 392.27997 392.35501 437.57001" style="stroke:#231f20; stroke-miterlimit:10; stroke-width:4px;"/><polygon points="392.35501 467.21997 392.35501 527.78998 352.24503 482.5 310.26498 528.29999 310.26498 467.72998 352.24503 421.92999 392.35501 467.21997" style="fill:none; stroke:#231f20; stroke-miterlimit:10; stroke-width:4px;"/><polygon points="392.35501 527.78998 392.35501 557.44 352.24503 512.14996 310.26498 557.95001 310.26498 528.29999 352.24503 482.5 392.35501 527.78998" style="stroke:#231f20; stroke-miterlimit:10; stroke-width:4px;"/><polygon points="392.35501 557.44 392.35501 618.01001 352.24503 572.71997 310.26498 618.51996 310.26498 557.95001 352.24503 512.14996 392.35501 557.44" style="fill:none; stroke:#231f20; stroke-miterlimit:10; stroke-width:4px;"/><polygon points="392.35501 618.01001 392.35501 647.64996 352.24503 602.37 310.26498 648.16998 310.26498 618.51996 352.24503 572.71997 392.35501 618.01001" style="stroke:#231f20; stroke-miterlimit:10; stroke-width:4px;"/><path d="M392.35501,647.64996v53.75c-1.75.31-3.5.61005-5.27002.87l-34.83997-39.32996-36.14001,39.41998c-1.95001-.28998-3.90002-.62-5.84003-.96002v-53.22998l41.98004-45.79999,40.10999,45.27997Z" style="fill:none; stroke:#231f20; stroke-miterlimit:10; stroke-width:4px;"/><path d="M387.08499,702.26996c-7.91998,1.22003-15.96997,2.04004-24.10999,2.44l-10.72998-12.13-11.17004,12.19c-8.44-.35999-16.76996-1.16998-24.96997-2.40997l36.14001-39.41998,34.83997,39.32996Z" style="stroke:#231f20; stroke-miterlimit:10; stroke-width:4px;"/><path d="M362.97501,704.70996c-1.92999.09003-3.87.17004-5.82001.22003-.84998.02002-1.70001.02997-2.54999.03998-.10004.01001-.19.01001-.28003.01001h-.75c-.42999.01001-.87.01001-1.29999.01001-.32001.01001-.64001.01001-.96997.01001h-.71002c-.34998,0-.69,0-1.03998-.01001-.33002.01001-.65002.01001-.98004,0-.04999-.01001-.09998-.01001-.14996-.01001h-.45001c-2.31-.03998-4.60999-.10999-6.90002-.21002l11.17004-12.19,10.72998,12.13Z" style="fill:none; stroke:#231f20; stroke-miterlimit:10; stroke-width:4px;"/><path d="M351.33002,122.63l-41.07001,44.81v264.57001c-13.22003-3.28003-23.91998-7.70001-31.69-11.54004-.23999-.12-.47998-.22998-.71002-.34998v-252.69l73.47003-44.79999Z" style="fill:#fff; stroke:#231f20; stroke-miterlimit:10; stroke-width:4px;"/><path d="M310.26001,432.01001v.17999c-13.54999-3.29999-24.48999-7.81-32.40002-11.72003v-.34998c.23004.12.47003.22998.71002.34998,7.77002,3.84003,18.46997,8.26001,31.69,11.54004Z" style="fill:#fff; stroke:#231f20; stroke-miterlimit:10; stroke-width:4px;"/><path d="M347.97749,704.97998c-.65002.01001-1.28998,0-1.94-.01001-23.34003-.28998-46.14001-2.85999-68.17999-7.48999v-277.01001c7.90997,3.91003,18.85999,8.42004,32.40997,11.72003v269.20996c1.94.34003,3.89001.67004,5.84003.96002,8.20001,1.23999,16.52997,2.04999,24.96997,2.40997,2.29004.10004,4.59003.17004,6.90002.21002Z" style="fill:#fff; stroke:#231f20; stroke-miterlimit:10; stroke-width:4px;"/><path d="M424.76001,166.90997v252.12c-.23999.12-.47003.25-.71002.37-7.52997,3.88-18.23999,8.54004-31.69,12.09003V166.91998l-39.85999-44.98999.44-.28003h.04999l71.77002,45.26001Z" style="fill:#fff; stroke:#231f20; stroke-miterlimit:10; stroke-width:4px;"/><path d="M424.76001,419.02997v278.15002c-21.84003,4.67999-44.45001,7.33997-67.60004,7.75,1.95001-.04999,3.89001-.13,5.82001-.22003,8.14001-.39996,16.19-1.21997,24.10004-2.44,1.77997-.25995,3.52997-.56,5.27997-.87v-269.90997c13.45001-3.54999,24.16003-8.21002,31.69-12.09003.23999-.12.47003-.25.71002-.37Z" style="fill:#fff; stroke:#231f20; stroke-miterlimit:10; stroke-width:4px;"/><path d="M705,352.5c0,169.23999-119.26001,310.62-278.33002,344.67999V166.90997l-71.77997-45.26001h-.04004l-.44995.28003,39.85999,44.98999v534.47998c-1.75.31-3.5.61005-5.27002.87-7.91998,1.22003-15.96997,2.04004-24.10999,2.44-1.92999.09003-3.87.17004-5.82001.22003-.84998.02002-1.70001.02997-2.54999.03998-.10004.01001-.19.01001-.28003.01001h-1.07996c-.33002.01001-.65002.02002-.97003.01001-.32001.01001-.64001.01001-.96997.01001h-.71002c-.34998,0-.69,0-1.03998-.01001-.33002.01001-.65002.01001-.98004,0-.19995,0-.39996,0-.59998-.01001-2.31-.03998-4.60999-.10999-6.90002-.21002-8.44-.35999-16.76996-1.16998-24.96997-2.40997-1.95001-.28998-3.90002-.62-5.84003-.96002V167.44l41.07001-44.81-73.47998,44.79999v530.04999C119.97998,663.95996,0,522.23999,0,352.5,0,157.82001,157.82001,0,352.5,0s352.5,157.82001,352.5,352.5Z" style="fill:none;"/><path d="M566.16998,457.54999c0,48.15997-58.57996,89.21002-140.69,104.90997-.23999.05005-.47998.09003-.71997.14001-10.23004,1.94-20.79999,3.47998-31.69,4.59003-.22998.02997-.47003.06-.71002.07996-13.29999,1.34003-27.01001,2.03003-41.04999,2.03003-13.79999,0-27.27002-.66998-40.33002-1.96002-.23999-.01996-.47998-.04999-.71997-.07001-10.88-1.08997-21.46002-2.62-31.69-4.53998-.23999-.03998-.47003-.08997-.71002-.13-82.48999-15.59998-141.40997-56.75-141.40997-105.04999s58.91998-89.45001,141.40997-105.04999v51.20996c-5.60999,2.80005-9.60999,5.26001-11.83997,6.68005l-2.69,1.51996,2.69,1.52002.06.03998c2.23999,1.42004,6.22998,3.85999,11.77997,6.65002.23004.12.47003.22998.71002.34998,7.77002,3.84003,18.46997,8.26001,31.69,11.54004l.71997.17999c11.71002,2.87,25.37,4.83997,40.70001,4.73999,15.40002-.10004,29.03998-2.25,40.67999-5.26001.23999-.06.47003-.12.71002-.17999,13.45996-3.54999,24.16998-8.21002,31.69-12.09003.23999-.12.47998-.25.71997-.37,4.39001-2.29999,7.63-4.28998,9.62-5.56l.07001-.03998,2.62-1.5-2.63-1.51001c-1.98999-1.27002-5.25-3.27002-9.67999-5.58002-.23999-.13-.47998-.25-.71997-.38v-51.95996c.23999.04999.47998.08997.71997.14001,82.11005,15.69995,140.69,56.75,140.69,104.90997Z" style="fill:#6d6e71; stroke:#231f20; stroke-linecap:round; stroke-miterlimit:10; stroke-width:3px;"/><ellipse cx="351.31" cy="53.64039" rx="47.08931" ry="53.64039" style="fill:#fff;"/></svg>