<?xml version="1.0" encoding="UTF-8"?><svg id="a" xmlns="http://www.w3.org/2000/svg" width="705" height="709.65503" viewBox="0 0 705 709.65503"><path d="M384.3295,57.36499v645.94c-1.33997.37-2.66998.74005-4.01996,1.05005-6.04004,1.46997-12.16998,2.45996-18.38,2.94-2.94.23999-5.91003.34998-8.89001.34998-2.60999,0-5.21002-.09003-7.79999-.27002-6.42999-.44-12.78003-1.41998-19.03003-2.91998-1.48999-.34998-2.96997-.72998-4.44995-1.15002V57.99499l31.97998-55.32996h.02002l30.56995,54.69995Z" style="fill:#fff; stroke:#231f20; stroke-miterlimit:10; stroke-width:4px;"/><polygon points="383.78361 57.375 383.78361 93.21502 353.211 38.48498 321.21639 93.83502 321.21639 58.005 353.1997 2.67498 353.211 2.66504 353.22229 2.67498 383.78361 57.375" style="stroke:#231f20; stroke-miterlimit:10; stroke-width:4px;"/><polygon points="383.78361 93.21502 383.78361 166.41504 353.211 111.68499 321.21639 167.03503 321.21639 93.83502 353.211 38.48498 383.78361 93.21502" style="fill:none; stroke:#231f20; stroke-miterlimit:10; stroke-width:4px;"/><polygon points="383.78361 166.41504 383.78361 202.24499 353.211 147.51501 321.21639 202.86499 321.21639 167.03503 353.211 111.68499 383.78361 166.41504" style="stroke:#231f20; stroke-miterlimit:10; stroke-width:4px;"/><polygon points="383.78361 202.24499 383.78361 275.445 353.211 220.71502 321.21639 276.065 321.21639 202.86499 353.211 147.51501 383.78361 202.24499" style="fill:none; stroke:#231f20; stroke-miterlimit:10; stroke-width:4px;"/><polygon points="383.78361 275.445 383.78361 311.26501 353.211 256.53503 321.21639 311.88501 321.21639 276.065 353.211 220.71502 383.78361 275.445" style="stroke:#231f20; stroke-miterlimit:10; stroke-width:4px;"/><polygon points="383.78361 311.26501 383.78361 384.46502 353.211 329.73498 321.21639 385.08502 321.21639 311.88501 353.211 256.53503 383.78361 311.26501" style="fill:none; stroke:#231f20; stroke-miterlimit:10; stroke-width:4px;"/><polygon points="383.78361 384.46502 383.78361 420.29504 353.211 365.565 321.21639 420.91504 321.21639 385.08502 353.211 329.73498 383.78361 384.46502" style="stroke:#231f20; stroke-miterlimit:10; stroke-width:4px;"/><polygon points="383.78361 420.29504 383.78361 493.49499 353.211 438.76501 321.21639 494.11499 321.21639 420.91504 353.211 365.565 383.78361 420.29504" style="fill:none; stroke:#231f20; stroke-miterlimit:10; stroke-width:4px;"/><polygon points="383.78361 493.49499 383.78361 529.32501 353.211 474.59503 321.21639 529.945 321.21639 494.11499 353.211 438.76501 383.78361 493.49499" style="stroke:#231f20; stroke-miterlimit:10; stroke-width:4px;"/><polygon points="383.78361 529.32501 383.78361 602.52502 353.211 547.79504 321.21639 603.14502 321.21639 529.945 353.211 474.59503 383.78361 529.32501" style="fill:none; stroke:#231f20; stroke-miterlimit:10; stroke-width:4px;"/><polygon points="383.78361 602.52502 383.78361 638.35504 353.211 583.625 321.21639 638.97503 321.21639 603.14502 353.211 547.79504 383.78361 602.52502" style="stroke:#231f20; stroke-miterlimit:10; stroke-width:4px;"/><path d="M383.78361,638.35504v64.95996c-1.33169.37-2.66903.73004-4.01201,1.04999l-26.5606-47.53998-27.54244,47.64001c-1.4897-.35004-2.97376-.73999-4.45217-1.15002v-64.33997l31.99461-55.35004,30.57261,54.73004Z" style="fill:none; stroke:#231f20; stroke-miterlimit:10; stroke-width:4px;"/><path d="M379.7716,704.36499c-6.04344,1.47003-12.17714,2.46002-18.37856,2.94l-8.18204-14.64996-8.51498,14.72998c-6.42711-.44-12.77524-1.41998-19.02746-2.91998l27.54244-47.64001,26.5606,47.53998Z" style="stroke:#231f20; stroke-miterlimit:10; stroke-width:4px;"/><path d="M361.39304,707.30499c-2.94555.23004-5.91363.35004-8.89304.35004-2.61261,0-5.21393-.09003-7.80398-.27002l8.51498-14.72998,8.18204,14.64996Z" style="fill:none; stroke:#231f20; stroke-miterlimit:10; stroke-width:4px;"/><path d="M452.27074,494.93373l-79.0414,79.0414,78.37134,78.37134-20.18078,20.18078-78.37134-78.37134-79.71409,79.71409-22.19365-22.19365,79.71409-79.71409-78.37134-78.37134,20.18078-20.18078,78.37134,78.37134,79.0414-79.0414,22.19365,22.19365Z" style="fill:#fff; stroke:#231f20; stroke-miterlimit:10; stroke-width:4px;"/><path d="M452.27074,281.69208l-79.0414,79.0414,78.37134,78.37134-20.18078,20.18078-78.37134-78.37134-79.71409,79.71409-22.19365-22.19365,79.71409-79.71409-78.37134-78.37134,20.18078-20.18078,78.37134,78.37134,79.0414-79.0414,22.19365,22.19365Z" style="fill:#fff; stroke:#231f20; stroke-miterlimit:10; stroke-width:4px;"/><path d="M452.27074,68.45043l-79.0414,79.0414,78.37134,78.37134-20.18078,20.18078-78.37134-78.37134-79.71409,79.71409-22.19365-22.19365,79.71409-79.71409-78.37134-78.37134,20.18078-20.18078,78.37134,78.37134,79.0414-79.0414,22.19365,22.19365Z" style="fill:#fff; stroke:#231f20; stroke-miterlimit:10; stroke-width:4px;"/><circle cx="352.5" cy="355.15503" r="352.5" style="fill:none;"/></svg>