<?xml version="1.0" encoding="UTF-8"?><svg id="a" xmlns="http://www.w3.org/2000/svg" width="705" height="705" viewBox="0 0 705 705"><path d="M58.75,352.5c0,31.70001,5.01001,62.21997,14.28003,90.81l-55.89001,18.15997C6.01001,427.15997,0,390.53998,0,352.5,0,235.14996,57.19,131.28998,145.25,67.23999l34.53998,47.53998c-73.38,53.38-121.03998,139.92999-121.03998,237.72003Z"/><path d="M559.76001,67.23999l-34.54999,47.54999c-48.46002-35.25-108.13-56.03998-172.71002-56.03998s-124.25,20.78998-172.71002,56.02997l-34.53998-47.53998C203.40002,24.94,275.01001,0,352.5,0s149.09998,24.94,207.26001,67.23999Z" style="fill:#fff;"/><path d="M705,352.5c0,38.03998-6.01001,74.65997-17.14001,108.96997l-55.89001-18.15997c9.27002-28.59003,14.28003-59.10999,14.28003-90.81,0-97.79004-47.65997-184.34003-121.03998-237.71002l34.54999-47.54999c88.04999,64.04999,145.23999,167.90997,145.23999,285.26001Z"/><path d="M687.85999,461.46997c-45.83997,141.42004-178.56,243.53003-335.35999,243.53003v-58.75c130.66998,0,241.27002-85.09003,279.46997-202.94l55.89001,18.15997Z"/><path d="M352.5,646.25v58.75c-156.79999,0-289.52002-102.10999-335.35999-243.53003l55.89001-18.15997c38.19995,117.84998,148.79999,202.94,279.46997,202.94Z" style="fill:#fff;"/><path d="M117.5,352.5c0,25.35999,4.01001,49.77997,11.41998,72.64996l-55.88995,18.16003c-9.27002-28.59003-14.28003-59.10999-14.28003-90.81,0-97.79004,47.65997-184.34003,121.03998-237.72003l34.54004,47.54999c-58.70001,42.70001-96.83002,111.94-96.83002,190.17004Z"/><path d="M525.21002,114.78998l-34.54004,47.53998c-38.76996-28.19995-86.51001-44.82996-138.16998-44.82996s-99.40002,16.63-138.16998,44.82996l-34.54004-47.54999c48.46002-35.23999,108.13-56.02997,172.71002-56.02997s124.25,20.78998,172.71002,56.03998Z"/><path d="M646.25,352.5c0,31.70001-5.01001,62.21997-14.28003,90.81l-55.88995-18.16003c7.40997-22.87,11.41998-47.28998,11.41998-72.64996,0-78.23004-38.13-147.47003-96.83002-190.17004l34.54004-47.53998c73.38,53.37,121.03998,139.91998,121.03998,237.71002Z" style="fill:#fff;"/><path d="M631.96997,443.31c-38.19995,117.84998-148.79999,202.94-279.46997,202.94v-58.75c104.53003,0,193.01001-68.07001,223.58002-162.35004l55.88995,18.16003Z" style="fill:#fff;"/><path d="M352.5,587.5v58.75c-130.66998,0-241.27002-85.09003-279.46997-202.94l55.88995-18.16003c30.57001,94.28003,119.04999,162.35004,223.58002,162.35004Z"/><path d="M176.25,352.5c0,19.01996,3.01001,37.32996,8.56,54.48999l-55.89001,18.15997c-7.40997-22.87-11.41998-47.28998-11.41998-72.64996,0-78.23004,38.13-147.47003,96.83002-190.17004l34.53998,47.54004c-44.02997,32.02997-72.62,83.95996-72.62,142.63Z" style="fill:#fff;"/><path d="M490.66998,162.32996l-34.53998,47.54004c-29.07001-21.15002-64.88-33.62-103.63-33.62s-74.56,12.46997-103.63,33.62l-34.53998-47.54004c38.76996-28.19995,86.51001-44.82996,138.16998-44.82996s99.40002,16.63,138.16998,44.82996Z" style="fill:#fff;"/><path d="M587.5,352.5c0,25.35999-4.01001,49.77997-11.41998,72.64996l-55.89001-18.15997c5.54999-17.16003,8.56-35.47003,8.56-54.48999,0-58.67004-28.59003-110.60004-72.62-142.63l34.53998-47.54004c58.70001,42.70001,96.83002,111.94,96.83002,190.17004Z" style="fill:#fff;"/><path d="M576.08002,425.14996c-30.57001,94.28003-119.04999,162.35004-223.58002,162.35004v-58.75c78.40002,0,144.76001-51.04999,167.69-121.76001l55.89001,18.15997Z" style="fill:#fff;"/><path d="M352.5,528.75v58.75c-104.53003,0-193.01001-68.07001-223.58002-162.35004l55.89001-18.15997c22.92999,70.71002,89.28998,121.76001,167.69,121.76001Z"/><path d="M235,352.5c0,12.67999,2,24.89001,5.71997,36.32001l-55.90997,18.16998c-5.54999-17.16003-8.56-35.47003-8.56-54.48999,0-58.67004,28.59003-110.60004,72.62-142.63l34.54999,47.54999c-29.35999,21.34003-48.41998,55.96002-48.41998,95.08002Z" style="fill:#fff;"/><path d="M456.13,209.87l-34.54999,47.54999c-19.38-14.10999-43.25-22.41998-69.08002-22.41998s-49.70001,8.31-69.08002,22.41998l-34.54999-47.54999c29.07001-21.15002,64.88-33.62,103.63-33.62s74.56,12.46997,103.63,33.62Z" style="fill:#fff;"/><path d="M528.75,352.5c0,19.01996-3.01001,37.32996-8.56,54.48999l-55.90997-18.16998c3.71997-11.42999,5.71997-23.64001,5.71997-36.32001,0-39.12-19.06-73.73999-48.41998-95.08002l34.54999-47.54999c44.02997,32.02997,72.62,83.95996,72.62,142.63Z"/><path d="M520.19,406.98999c-22.92999,70.71002-89.28998,121.76001-167.69,121.76001v-58.75c52.27002,0,96.51001-34.04004,111.78003-81.17999l55.90997,18.16998Z"/><path d="M352.5,470v58.75c-78.40002,0-144.76001-51.04999-167.69-121.76001l55.90997-18.16998c15.27002,47.13995,59.51001,81.17999,111.78003,81.17999Z" style="fill:#fff;"/><path d="M293.75,352.5c0,6.33997,1,12.45001,2.85999,18.15997l-55.89001,18.16003c-3.71997-11.42999-5.71997-23.64001-5.71997-36.32001,0-39.12,19.06-73.73999,48.41998-95.08002l34.54004,47.53998c-14.67999,10.68005-24.21002,27.99005-24.21002,47.54004Z" style="fill:#fff;"/><path d="M421.58002,257.41998l-34.54004,47.53998c-9.69-7.04999-21.62-11.20996-34.53998-11.20996s-24.84998,4.15997-34.53998,11.20996l-34.54004-47.53998c19.38-14.10999,43.25-22.41998,69.08002-22.41998s49.70001,8.31,69.08002,22.41998Z"/><path d="M470,352.5c0,12.67999-2,24.89001-5.71997,36.32001l-55.89001-18.16003c1.85999-5.70996,2.85999-11.82001,2.85999-18.15997,0-19.54999-9.53003-36.85999-24.21002-47.54004l34.54004-47.53998c29.35999,21.34003,48.41998,55.96002,48.41998,95.08002Z"/><path d="M464.28003,388.82001c-15.27002,47.13995-59.51001,81.17999-111.78003,81.17999v-58.75c26.13,0,48.25-17.02002,55.89001-40.59003l55.89001,18.16003Z"/><path d="M352.5,411.25v58.75c-52.27002,0-96.51001-34.04004-111.78003-81.17999l55.89001-18.16003c7.64001,23.57001,29.76001,40.59003,55.89001,40.59003Z" style="fill:#fff;"/><path d="M352.5,352.5l-55.89001,18.15997c-1.85999-5.70996-2.85999-11.82001-2.85999-18.15997,0-19.54999,9.53003-36.85999,24.21002-47.54004l34.53998,47.54004Z" style="fill:#fff;"/><path d="M387.03998,304.95996l-34.53998,47.54004-34.53998-47.54004c9.69-7.04999,21.62-11.20996,34.53998-11.20996s24.84998,4.15997,34.53998,11.20996Z"/><path d="M411.25,352.5c0,6.33997-1,12.45001-2.85999,18.15997l-55.89001-18.15997,34.53998-47.54004c14.67999,10.68005,24.21002,27.99005,24.21002,47.54004Z" style="fill:#fff;"/><path d="M408.39001,370.65997c-7.64001,23.57001-29.76001,40.59003-55.89001,40.59003v-58.75l55.89001,18.15997Z" style="fill:#fff;"/><path d="M352.5,352.5v58.75c-26.13,0-48.25-17.02002-55.89001-40.59003l55.89001-18.15997Z"/></svg>