<?xml version="1.0" encoding="UTF-8"?><svg id="a" xmlns="http://www.w3.org/2000/svg" width="812.16199" height="765.57945" viewBox="0 0 812.16199 765.57945"><path d="M658.48766,406.14985c6.62408-125.19662-71.20313-238.16036-188.14887-281.38229-3.98176-1.24679-12.28206-4.32981-16.15237-5.33748-5.13872-1.44977-11.29282-3.33782-16.4826-4.42606-2.68955-.57924-7.11805-1.67819-9.73247-2.25771.00004-.00007-1.40624-.24483-1.40624-.24483,0,0-11.26773-2.00703-11.26773-2.00703-3.1748-.59427-8.09641-1.09405-11.37109-1.53408.00003.00001-5.70703-.73729-5.70703-.73729,0,0-5.74335-.41721-5.74335-.41721-3.48677-.19791-8.09802-.73979-11.51795-.78026,0,.00005-11.56152-.27966-11.56152-.27966-5.31898-.0996-12.00482.28643-17.36182.34576-5.39418.48522-11.98933.7965-17.32419,1.4496-2.27567.27013-12.36931,1.53654-14.39003,1.91997-6.34553,1.16571-13.72122,2.33227-19.97925,3.94607-12.01306,2.49895-24.79985,6.71388-36.4472,10.72598-3.90878,1.56219-9.72712,3.85058-13.66329,5.39255-3.87758,1.76125-9.54714,4.34067-13.41898,6.06901-1.67117.85184-11.24494,5.7647-13.1449,6.72814-40.10402,21.95152-75.6589,52.85545-102.66622,89.88462-79.32584,107.90596-80.7777,256.50824-6.76703,367.73309,3.26759,5.32657,7.42796,10.58847,10.98869,15.73318,2.33846,3.2434,5.49967,6.96107,7.90299,10.09407,4.60294,5.84713,11.74968,14.00078,16.90884,19.35686,4.25756,4.4381,9.10552,9.54832,13.67465,13.67086,24.96281,23.82563,54.15786,43.70337,85.2445,58.78349,63.68504,30.65671,137.07679,40.76839,206.81715,28.92883,4.19049-.73022,5.89023,5.52633,1.45654,6.84681-24.34644,6.25901-49.56482,9.92809-74.76488,10.93656-169.69082,6.74229-320.46715-105.53052-367.46732-267.99067C-52.9228,257.93352,117.94029,21.51869,364.7716,1.34816c5.21488-.26852,18.19357-1.29146,23.33511-1.18548,3.84865-.02165,11.75037-.15361,15.61037-.16268,7.20186.35932,16.28921.44026,23.45426,1.05594,3.05467.2608,16.7949,1.45986,19.53408,1.85659,77.50871,9.31267,152.10357,41.49476,212.27251,91.30968,53.1016,43.62183,95.09986,100.64934,121.31687,164.21734,19.23435,46.77939,29.91097,97.12263,31.79619,147.71036,1.80833,42.43251-31.144,78.29503-73.57824,80.07422-44.69868,2.10297-82.11671-35.40894-80.02508-80.07428h0Z" style="fill:#fff;"/></svg>